<mxfile host="app.diagrams.net" agent="Mozilla/5.0 (Windows NT 10.0; Win64; x64) AppleWebKit/537.36 (KHTML, like Gecko) Chrome/134.0.0.0 Safari/537.36 Edg/134.0.0.0" version="26.2.4">
  <diagram name="第 1 页" id="oZmbVZ58K-3-vop1x0v9">
    <mxGraphModel dx="1207" dy="807" grid="1" gridSize="10" guides="1" tooltips="1" connect="1" arrows="1" fold="1" page="1" pageScale="1" pageWidth="827" pageHeight="1169" math="0" shadow="0">
      <root>
        <mxCell id="0" />
        <mxCell id="1" parent="0" />
        <mxCell id="qQlkCYJ9NeFefcQVSuAm-4" value="" style="edgeStyle=orthogonalEdgeStyle;rounded=0;orthogonalLoop=1;jettySize=auto;html=1;" edge="1" parent="1" source="qQlkCYJ9NeFefcQVSuAm-1" target="qQlkCYJ9NeFefcQVSuAm-3">
          <mxGeometry relative="1" as="geometry" />
        </mxCell>
        <mxCell id="qQlkCYJ9NeFefcQVSuAm-1" value="开始" style="strokeWidth=2;html=1;shape=mxgraph.flowchart.start_1;whiteSpace=wrap;fillColor=#ffe6cc;strokeColor=#d79b00;" vertex="1" parent="1">
          <mxGeometry x="320" y="110" width="100" height="60" as="geometry" />
        </mxCell>
        <mxCell id="qQlkCYJ9NeFefcQVSuAm-6" value="" style="edgeStyle=orthogonalEdgeStyle;rounded=0;orthogonalLoop=1;jettySize=auto;html=1;" edge="1" parent="1" source="qQlkCYJ9NeFefcQVSuAm-3" target="qQlkCYJ9NeFefcQVSuAm-5">
          <mxGeometry relative="1" as="geometry" />
        </mxCell>
        <mxCell id="qQlkCYJ9NeFefcQVSuAm-3" value="点击该关键词" style="whiteSpace=wrap;html=1;strokeWidth=2;fillColor=#f5f5f5;fontColor=#333333;strokeColor=#666666;" vertex="1" parent="1">
          <mxGeometry x="310" y="210" width="120" height="60" as="geometry" />
        </mxCell>
        <mxCell id="qQlkCYJ9NeFefcQVSuAm-8" value="" style="edgeStyle=orthogonalEdgeStyle;rounded=0;orthogonalLoop=1;jettySize=auto;html=1;" edge="1" parent="1" source="qQlkCYJ9NeFefcQVSuAm-5" target="qQlkCYJ9NeFefcQVSuAm-7">
          <mxGeometry relative="1" as="geometry" />
        </mxCell>
        <mxCell id="qQlkCYJ9NeFefcQVSuAm-5" value="跳转到对应的链接" style="whiteSpace=wrap;html=1;strokeWidth=2;fillColor=#f5f5f5;fontColor=#333333;strokeColor=#666666;" vertex="1" parent="1">
          <mxGeometry x="310" y="320" width="120" height="60" as="geometry" />
        </mxCell>
        <mxCell id="qQlkCYJ9NeFefcQVSuAm-7" value="结束" style="strokeWidth=2;html=1;shape=mxgraph.flowchart.start_1;whiteSpace=wrap;fillColor=#ffe6cc;strokeColor=#d79b00;" vertex="1" parent="1">
          <mxGeometry x="320" y="420" width="100" height="60" as="geometry" />
        </mxCell>
      </root>
    </mxGraphModel>
  </diagram>
</mxfile>
